<svg xmlns="http://www.w3.org/2000/svg" width="132" height="85" viewBox="0 0 132 85" fill="none"><path d="M107.8 28.2002C106.7 27.1002 104.9 27.2002 103.8 28.3002L99.5 32.8002L94.4 38.2002C93.3 39.3002 91.6 39.4002 90.4 38.3002C89.3 37.2002 89.2 35.4002 90.3 34.3002L95.4 28.9002L104.4 19.4002L107 16.6002C108.1 15.5002 108 13.7002 106.9 12.6002C105.8 11.5002 104 11.6002 102.9 12.7002L100.3 15.5002L91.3 25.0002L86.2 30.4002C85.1 31.5002 83.4 31.6002 82.2 30.5002C81.6 29.8002 80.6 28.1002 82.1 26.5002L93.8 14.1002L99.7 8.10016C100.8 7.00016 100.7 5.20016 99.6 4.10016C98.5 3.00016 96.7 3.10016 95.6 4.20016L89.7 10.2002L78 22.6002C76.9 23.7002 75.2 23.8002 74 22.7002C73.3 21.9002 72.2 20.5002 73.9 18.7002L79 13.3002L86.1 5.70016C87.8 3.90016 87.1 2.40016 86.1 1.50016C84.7 0.30016 83.1 0.70016 82 1.80016L61.3 24.3002C59.4 26.2002 58 27.5002 57.4 27.9002C54.4 29.9002 51.5 26.1002 46.1 23.8002L45.8 23.7002C45.5 23.6002 45.3 23.5002 45 23.4002C38.1 21.1002 34.5 30.7002 34.5 30.7002C35.1 30.8002 35.8 31.0002 36.4 31.3002C45.4 35.4002 53.3 56.4002 70.1 57.3002C86.5 58.2002 97.5 42.8002 107.6 32.1002C108.8 30.9002 108.9 29.3002 107.8 28.2002ZM41.9 28.6002C41.2 28.6002 40.6 28.0002 40.6 27.3002C40.6 26.6002 41.2 26.0002 41.9 26.0002C42.6 26.0002 43.2 26.6002 43.2 27.3002C43.2 28.0002 42.6 28.6002 41.9 28.6002ZM30.5 30.3002C31.4 30.2002 32.3 29.9002 33.1 29.4002C33.1 29.4002 33.1 29.4002 33.1 29.3002C32.6 25.3002 28.9 22.5002 24.9 23.1002C24 23.2002 23.1 23.5002 22.3 24.0002C22.3 24.0002 22.3 24.0002 22.3 24.1002C22.9 28.1002 26.6 30.8002 30.5 30.3002ZM31 31.6002C27.7 31.7002 25.1 34.5002 25.2 37.8002C25.2 37.8002 25.2 37.8002 25.2 37.9002C25.9 38.1002 26.6 38.3002 27.4 38.2002C30.7 38.1002 33.3 35.3002 33.2 32.0002C33.2 32.0002 33.2 32.0002 33.2 31.9002C32.6 31.7002 31.8 31.6002 31 31.6002ZM51.5 81.0002C50.3 81.0002 49.4 81.8002 49.4 83.0002C49.4 84.1002 50.3 85.0002 51.5 85.0002C52.7 85.0002 53.6 84.1002 53.6 83.0002C53.6 81.9002 52.7 81.0002 51.5 81.0002ZM51.5 84.2002C50.8 84.2002 50.3 83.7002 50.3 83.0002C50.3 82.3002 50.8 81.8002 51.5 81.8002C52.2 81.8002 52.7 82.3002 52.7 83.0002C52.7 83.7002 52.2 84.2002 51.5 84.2002ZM41 81.0002C39.8 81.0002 38.9 81.8002 38.9 83.0002C38.9 84.1002 39.8 85.0002 41 85.0002C42.2 85.0002 43.1 84.1002 43.1 83.0002C43.1 81.9002 42.2 81.0002 41 81.0002ZM41 84.2002C40.3 84.2002 39.8 83.7002 39.8 83.0002C39.8 82.3002 40.3 81.8002 41 81.8002C41.7 81.8002 42.2 82.3002 42.2 83.0002C42.2 83.7002 41.6 84.2002 41 84.2002ZM35.1 81.0002H33.4V85.0002H35C36.2 85.0002 37.1 84.2002 37.1 83.0002C37.2 81.8002 36.3 81.0002 35.1 81.0002ZM35.1 84.2002H34.3V81.8002H35.1C35.8 81.8002 36.3 82.3002 36.3 83.0002C36.3 83.7002 35.8 84.2002 35.1 84.2002ZM46 81.0002H45.1V85.0002H47.7V84.2002H46V81.0002ZM78.3 81.0002L76.6 85.0002H77.5L77.8 84.2002H79.6L80 85.0002H80.9L79.2 81.0002H78.3ZM78.1 83.5002L78.7 82.0002L79.3 83.5002H78.1ZM70.5 81.8002H71.7V85.0002H72.6V81.8002H73.8V81.0002H70.5V81.8002ZM59 82.4002C59 81.5002 58.4 81.0002 57.4 81.0002H55.7V85.0002H56.6V83.9002H57.5L58.1 85.0002H59.1L58.3 83.7002C58.8 83.4002 59 83.0002 59 82.4002ZM57.4 83.1002H56.6V81.8002H57.4C57.9 81.8002 58.2 82.0002 58.2 82.5002C58.2 82.9002 57.9 83.1002 57.4 83.1002ZM67.6 85.0002H68.5V81.0002H67.6V85.0002ZM84.9 83.4002L83.8 81.0002H82.8V85.0002H83.6V82.4002L84.6 84.6002H85.2L86.2 82.4002V85.0002H87V81.0002H86L84.9 83.4002ZM92.2 83.4002V82.7002H90.3V81.8002H92.4V81.0002H89.4V85.0002H92.4V84.3002H90.2V83.4002H92.2ZM63.5 82.1002C63.5 81.9002 63.7 81.8002 64 81.8002C64.3 81.8002 64.8 82.0002 65.2 82.2002L65.5 81.5002C65.1 81.2002 64.6 81.0002 64 81.0002C63.1 81.0002 62.5 81.4002 62.5 82.2002C62.5 83.6002 64.6 83.2002 64.6 83.9002C64.6 84.1002 64.4 84.3002 64 84.3002C63.6 84.3002 63 84.1002 62.6 83.7002L62.2 84.4002C62.6 84.8002 63.3 85.0002 63.9 85.0002C64.8 85.0002 65.4 84.6002 65.4 83.8002C65.5 82.4002 63.5 82.8002 63.5 82.1002ZM94.2 81.8002H95.4V85.0002H96.3V81.8002H97.5V81.0002H94.2V81.8002ZM8.5 69.7002H5.3C5.3 69.7002 5.3 69.7002 5.3 69.8002V69.9002H5.4C5.5 69.9002 5.5 69.9002 5.7 70.0002C5.8 70.0002 5.9 70.1002 6.1 70.2002C6.2 70.3002 6.3 70.4002 6.4 70.5002C6.5 70.6002 6.5 70.8002 6.5 71.0002V71.5002C6.5 71.8002 6.5 72.1002 6.5 72.4002C6.5 72.7002 6.4 73.0002 6.3 73.2002C6.2 73.4002 6.1 73.6002 5.8 73.8002C5.6 74.0002 5.3 74.0002 4.9 74.0002C4.5 74.0002 4.2 73.9002 3.9 73.6002C3.6 73.4002 3.4 73.0002 3.2 72.6002C3 72.2002 2.9 71.7002 2.8 71.2002C2.7 70.7002 2.7 70.1002 2.7 69.5002C2.7 68.9002 2.7 68.3002 2.8 67.8002C2.9 67.3002 3 66.8002 3.2 66.4002C3.4 66.0002 3.7 65.7002 4 65.4002C4.3 65.2002 4.7 65.0002 5.1 65.0002C5.5 65.0002 5.8 65.1002 6.1 65.2002C6.4 65.3002 6.6 65.5002 6.8 65.6002C7 65.8002 7.2 66.0002 7.3 66.2002C7.4 66.4002 7.5 66.6002 7.6 66.8002C7.6 66.8002 7.6 66.8002 7.7 66.9002C7.7 66.9002 7.7 66.9002 7.8 66.9002C7.8 66.9002 7.8 66.9002 7.9 66.9002C7.9 66.9002 7.9 66.9002 7.9 66.8002V65.3002C7.9 65.2002 7.9 65.2002 7.8 65.2002C7.8 65.2002 7.7 65.1002 7.6 65.1002C7.4 65.1002 7.2 65.1002 7 65.0002C6.8 64.9002 6.5 64.9002 6.2 64.8002C5.9 64.7002 5.5 64.7002 5.1 64.7002C4.6 64.7002 4.2 64.8002 3.7 64.9002C3.3 65.0002 2.9 65.2002 2.5 65.4002C2.1 65.6002 1.8 65.9002 1.5 66.2002C1.2 66.5002 0.9 66.8002 0.7 67.2002C0.5 67.6002 0.3 68.0002 0.2 68.4002C0.1 68.7002 0 69.2002 0 69.6002C0 70.3002 0.1 70.9002 0.4 71.5002C0.6 72.1002 1 72.6002 1.4 73.0002C1.8 73.4002 2.3 73.8002 2.9 74.0002C3.5 74.3002 4.1 74.4002 4.8 74.4002C5.2 74.4002 5.5 74.4002 5.8 74.3002C6.1 74.3002 6.4 74.2002 6.7 74.1002C7 74.1002 7.3 74.1002 7.6 74.0002C7.9 73.9002 8.2 73.8002 8.6 73.7002C8.7 73.7002 8.7 73.7002 8.7 73.6002C8.7 73.6002 8.7 73.5002 8.7 73.4002V69.9002C8.7 69.8002 8.7 69.8002 8.6 69.7002C8.6 69.7002 8.6 69.7002 8.5 69.7002ZM19 72.1002C19 72.1002 19 72.2002 18.9 72.3002C18.9 72.4002 18.8 72.5002 18.7 72.7002C18.6 72.8002 18.5 73.0002 18.4 73.1002C18.3 73.2002 18.1 73.4002 17.9 73.5002C17.7 73.6002 17.5 73.7002 17.3 73.8002C17.1 73.9002 16.8 73.9002 16.5 73.9002C16.3 73.9002 16 73.9002 15.9 73.9002C15.7 73.9002 15.6 73.9002 15.5 73.8002C15.4 73.8002 15.4 73.7002 15.3 73.6002C15.3 73.5002 15.3 73.4002 15.3 73.3002V66.1002C15.3 65.9002 15.3 65.7002 15.4 65.6002C15.5 65.5002 15.6 65.4002 15.7 65.3002C15.8 65.2002 15.9 65.2002 16.1 65.1002C16.2 65.1002 16.3 65.0002 16.4 65.0002H16.5V64.9002C16.5 64.9002 16.5 64.9002 16.5 64.8002H11.9C11.9 64.8002 11.9 64.8002 11.9 64.9002V65.0002H12C12.1 65.0002 12.1 65.0002 12.3 65.1002C12.4 65.1002 12.5 65.2002 12.7 65.3002C12.8 65.4002 12.9 65.5002 13 65.6002C13.1 65.7002 13.1 65.9002 13.1 66.1002V73.0002C13.1 73.2002 13.1 73.4002 13 73.5002C12.9 73.6002 12.8 73.7002 12.7 73.8002C12.6 73.9002 12.5 73.9002 12.3 74.0002C12.2 74.0002 12.1 74.0002 12 74.1002H11.9C11.9 74.1002 11.9 74.1002 11.9 74.2002C11.9 74.2002 11.9 74.2002 11.9 74.3002H19C19.1 74.3002 19.1 74.3002 19.1 74.2002V72.2002C19.1 72.1002 19.1 72.1002 19 72.1002C19 72.0002 19 72.0002 19 72.1002ZM31.2 67.1002C31 66.7002 30.8 66.4002 30.5 66.1002C30.2 65.8002 29.9 65.6002 29.5 65.3002C29.1 65.1002 28.8 64.9002 28.3 64.8002C27.9 64.7002 27.4 64.6002 27 64.6002C26.5 64.6002 26.1 64.7002 25.6 64.8002C25.2 64.9002 24.8 65.1002 24.4 65.3002C24 65.5002 23.7 65.8002 23.4 66.1002C23.1 66.4002 22.8 66.7002 22.6 67.1002C22.4 67.5002 22.2 67.9002 22.1 68.3002C22 68.7002 22 69.2002 22 69.6002C22 70.3002 22.1 70.9002 22.4 71.5002C22.6 72.1002 23 72.6002 23.4 73.0002C23.8 73.4002 24.3 73.8002 24.9 74.0002C25.5 74.3002 26.1 74.4002 26.8 74.4002C27.3 74.4002 27.7 74.3002 28.2 74.2002C28.6 74.1002 29 73.9002 29.4 73.7002C29.8 73.5002 30.1 73.2002 30.4 72.9002C30.7 72.6002 31 72.3002 31.2 71.9002C31.4 71.5002 31.6 71.1002 31.7 70.7002C31.8 70.3002 31.9 69.8002 31.9 69.4002C31.9 69.0002 31.8 68.5002 31.7 68.1002C31.5 67.8002 31.4 67.4002 31.2 67.1002ZM29 71.3002C28.9 71.8002 28.8 72.3002 28.6 72.7002C28.4 73.1002 28.2 73.4002 27.9 73.7002C27.6 73.9002 27.3 74.1002 26.9 74.1002C26.5 74.1002 26.2 74.0002 25.9 73.7002C25.6 73.5002 25.4 73.1002 25.2 72.7002C25 72.3002 24.9 71.8002 24.8 71.3002C24.7 70.8002 24.7 70.2002 24.7 69.6002C24.7 69.0002 24.7 68.4002 24.8 67.9002C24.9 67.4002 25 66.9002 25.2 66.5002C25.4 66.1002 25.6 65.8002 25.9 65.5002C26.2 65.3002 26.5 65.1002 26.9 65.1002C27.3 65.1002 27.6 65.2002 27.9 65.5002C28.2 65.7002 28.4 66.1002 28.6 66.5002C28.8 66.9002 28.9 67.4002 29 67.9002C29.1 68.4002 29.1 69.0002 29.1 69.6002C29.1 70.2002 29.1 70.8002 29 71.3002ZM35.8 73.5002C35.7 73.6002 35.6 73.7002 35.5 73.8002C35.4 73.9002 35.3 73.9002 35.1 74.0002C35 74.0002 34.9 74.0002 34.8 74.1002H34.7C34.7 74.1002 34.7 74.1002 34.7 74.2002C34.7 74.2002 34.7 74.2002 34.7 74.3002H39.4C40 74.3002 40.5 74.2002 41 74.1002C41.4 74.0002 41.8 73.8002 42 73.6002C42.3 73.4002 42.4 73.1002 42.6 72.8002C42.7 72.5002 42.8 72.2002 42.8 71.8002C42.8 71.5002 42.8 71.3002 42.7 71.1002C42.6 70.9002 42.5 70.6002 42.4 70.4002C42.3 70.2002 42.1 70.0002 41.8 69.8002C41.6 69.6002 41.2 69.5002 40.9 69.4002C41.2 69.3002 41.4 69.1002 41.6 69.0002C41.8 68.8002 41.9 68.7002 42 68.5002C42.1 68.3002 42.2 68.1002 42.2 67.9002C42.2 67.7002 42.3 67.5002 42.3 67.3002C42.3 67.0002 42.3 66.7002 42.2 66.4002C42.1 66.1002 42 65.9002 41.8 65.7002C41.6 65.5002 41.3 65.3002 41 65.2002C40.7 65.1002 40.3 65.0002 39.8 65.0002H34.9C34.9 65.0002 34.9 65.0002 34.9 65.1002V65.2002H35C35.1 65.2002 35.1 65.2002 35.3 65.3002C35.4 65.3002 35.5 65.4002 35.7 65.5002C35.8 65.6002 35.9 65.7002 36 65.8002C36.1 65.9002 36.1 66.1002 36.1 66.3002V73.0002C35.9 73.2002 35.9 73.3002 35.8 73.5002ZM38.2 66.7002C38.2 66.4002 38.2 66.2002 38.2 66.0002C38.2 65.8002 38.3 65.7002 38.3 65.5002C38.4 65.4002 38.4 65.3002 38.5 65.2002C38.6 65.1002 38.7 65.1002 38.9 65.1002C39.1 65.1002 39.3 65.2002 39.4 65.3002C39.5 65.4002 39.6 65.5002 39.7 65.7002C39.8 65.9002 39.8 66.1002 39.8 66.3002C39.8 66.5002 39.8 66.7002 39.8 66.9002C39.8 67.4002 39.8 67.7002 39.7 68.0002C39.6 68.3002 39.5 68.5002 39.4 68.7002C39.3 68.9002 39.1 69.0002 39 69.0002C38.9 69.1002 38.7 69.1002 38.6 69.1002C38.5 69.1002 38.4 69.1002 38.3 69.0002C38.2 68.9002 38.2 68.8002 38.2 68.7002V66.7002ZM38.2 70.0002C38.2 69.9002 38.2 69.8002 38.3 69.7002C38.4 69.6002 38.5 69.6002 38.6 69.6002C38.7 69.6002 38.8 69.6002 38.9 69.6002C39 69.6002 39.1 69.6002 39.2 69.7002C39.3 69.7002 39.4 69.8002 39.5 69.9002C39.6 70.0002 39.7 70.1002 39.8 70.3002C39.9 70.5002 40 70.7002 40 70.9002C40.1 71.1002 40.1 71.4002 40.1 71.8002C40.1 71.9002 40.1 72.0002 40.1 72.2002C40.1 72.3002 40.1 72.5002 40.1 72.7002C40.1 72.9002 40.1 73.0002 40 73.2002C40 73.4002 39.9 73.5002 39.8 73.6002C39.7 73.7002 39.6 73.8002 39.5 73.9002C39.4 74.0002 39.2 74.0002 39 74.0002C38.8 74.0002 38.7 74.0002 38.5 73.9002C38.4 73.8002 38.3 73.7002 38.2 73.6002C38.1 73.5002 38.1 73.3002 38.1 73.1002C38.1 72.9002 38.1 72.7002 38.1 72.4002V70.0002H38.2ZM55 74.0002C54.9 74.0002 54.7 73.9002 54.6 73.9002C54.5 73.8002 54.4 73.8002 54.2 73.7002C54.1 73.6002 54 73.5002 53.9 73.3002C53.8 73.2002 53.7 73.0002 53.7 72.8002C53.7 72.7002 53.6 72.5002 53.5 72.2002C53.4 71.9002 53.3 71.6002 53.2 71.2002C53.1 70.8002 52.9 70.4002 52.8 69.9002C52.6 69.4002 52.5 69.0002 52.3 68.5002C52.1 68.0002 52 67.6002 51.8 67.1002C51.7 66.7002 51.5 66.3002 51.4 65.9002C51.3 65.5002 51.2 65.3002 51.1 65.0002C51 64.8002 51 64.7002 51 64.6002C51 64.5002 50.9 64.5002 50.9 64.5002C50.9 64.5002 50.8 64.5002 50.7 64.5002C50.6 64.6002 50.5 64.6002 50.3 64.6002C50.2 64.6002 50 64.7002 49.9 64.7002C49.8 64.7002 49.6 64.8002 49.5 64.8002C49.4 64.8002 49.2 64.9002 49.1 64.9002C49 64.9002 49 64.9002 49 65.0002L48.9 65.1002C48.9 65.1002 48.9 65.2002 48.8 65.4002C48.7 65.6002 48.6 65.9002 48.5 66.3002C48.4 66.7002 48.2 67.1002 48.1 67.5002C48 68.0002 47.8 68.5002 47.7 69.0002C47.5 69.5002 47.4 69.9002 47.2 70.4002C47 70.9002 46.9 71.3002 46.8 71.7002C46.7 72.1002 46.6 72.4002 46.5 72.7002C46.4 73.0002 46.3 73.1002 46.3 73.2002C46.2 73.3002 46.2 73.5002 46.1 73.6002C46 73.7002 45.9 73.8002 45.8 73.9002C45.7 74.0002 45.6 74.0002 45.5 74.1002C45.4 74.1002 45.3 74.2002 45.1 74.2002C45.1 74.2002 45 74.2002 45 74.3002V74.4002C45 74.4002 45 74.4002 45 74.5002C45 74.5002 45 74.5002 45.1 74.5002H47.8C47.8 74.5002 47.8 74.5002 47.8 74.4002V74.3002C47.8 74.3002 47.8 74.3002 47.7 74.2002C47.6 74.2002 47.5 74.2002 47.4 74.1002C47.3 74.1002 47.2 74.0002 47.1 74.0002C47 73.9002 46.9 73.9002 46.9 73.7002C46.8 73.6002 46.8 73.5002 46.9 73.3002C46.9 73.3002 46.9 73.2002 47 73.1002C47 73.0002 47.1 72.9002 47.1 72.7002C47.1 72.5002 47.2 72.4002 47.2 72.2002C47.3 72.0002 47.3 71.9002 47.4 71.7002C47.5 71.5002 47.5 71.4002 47.5 71.3002C47.5 71.2002 47.6 71.1002 47.6 71.0002C47.6 71.0002 47.6 70.9002 47.7 70.9002H50.7C50.7 70.9002 50.8 70.9002 50.8 71.0002C50.8 71.0002 50.8 71.1002 50.9 71.2002C50.9 71.3002 51 71.4002 51 71.5002C51 71.6002 51.1 71.8002 51.1 71.9002C51.2 72.1002 51.2 72.2002 51.3 72.4002C51.3 72.5002 51.4 72.7002 51.4 72.8002C51.4 72.9002 51.5 73.0002 51.5 73.1002C51.6 73.3002 51.6 73.5002 51.5 73.6002C51.4 73.7002 51.4 73.9002 51.2 73.9002C51.1 74.0002 51 74.0002 50.9 74.1002C50.8 74.1002 50.7 74.2002 50.7 74.2002C50.7 74.2002 50.6 74.2002 50.6 74.3002C50.6 74.3002 50.6 74.3002 50.6 74.4002C50.6 74.4002 50.6 74.4002 50.6 74.5002C50.6 74.5002 50.6 74.5002 50.7 74.5002H55.2C55.2 74.5002 55.2 74.5002 55.2 74.4002C55.1 74.1002 55.1 74.1002 55 74.0002ZM50.5 70.3002H47.9C47.8 70.3002 47.8 70.3002 47.8 70.2002C47.9 70.0002 47.9 69.8002 48 69.6002C48.1 69.3002 48.2 69.1002 48.3 68.8002C48.4 68.5002 48.5 68.2002 48.6 67.9002C48.7 67.6002 48.8 67.3002 48.9 67.1002C49 66.9002 49 66.6002 49.1 66.5002C49.2 66.3002 49.2 66.3002 49.2 66.2002C49.2 66.2002 49.2 66.2002 49.3 66.2002C49.3 66.2002 49.3 66.2002 49.4 66.2002C49.4 66.2002 49.4 66.3002 49.5 66.4002C49.5 66.5002 49.6 66.7002 49.7 66.9002C49.8 67.1002 49.8 67.3002 49.9 67.5002C50 67.7002 50.1 68.0002 50.1 68.2002C50.2 68.4002 50.3 68.7002 50.3 68.9002C50.4 69.1002 50.4 69.4002 50.5 69.5002C50.6 69.7002 50.6 69.9002 50.7 70.0002C50.5 70.1002 50.5 70.2002 50.5 70.3002ZM58.4 73.5002C58.3 73.6002 58.2 73.7002 58.1 73.8002C58 73.9002 57.9 73.9002 57.7 74.0002C57.6 74.0002 57.5 74.0002 57.4 74.1002H57.3C57.3 74.1002 57.3 74.1002 57.3 74.2002C57.3 74.2002 57.3 74.2002 57.3 74.3002H64.5C64.6 74.3002 64.6 74.3002 64.6 74.2002V72.2002C64.6 72.1002 64.6 72.1002 64.5 72.1002C64.4 72.1002 64.4 72.1002 64.4 72.2002C64.4 72.2002 64.4 72.3002 64.3 72.4002C64.3 72.5002 64.2 72.6002 64.1 72.8002C64 72.9002 63.9 73.1002 63.8 73.2002C63.7 73.3002 63.5 73.5002 63.3 73.6002C63.1 73.7002 62.9 73.8002 62.7 73.9002C62.5 74.0002 62.2 74.0002 61.9 74.0002C61.7 74.0002 61.4 74.0002 61.3 74.0002C61.1 74.0002 61 74.0002 60.9 73.9002C60.8 73.9002 60.8 73.8002 60.7 73.7002C60.7 73.6002 60.7 73.5002 60.7 73.4002V66.2002C60.7 66.0002 60.7 65.8002 60.8 65.7002C60.9 65.6002 61 65.5002 61.1 65.4002C61.2 65.3002 61.3 65.3002 61.5 65.2002C61.6 65.2002 61.7 65.1002 61.8 65.1002H61.9V65.0002C61.9 65.0002 61.9 65.0002 61.9 64.9002H57.3C57.3 64.9002 57.3 64.9002 57.3 65.0002V65.1002H57.4C57.5 65.1002 57.5 65.1002 57.7 65.2002C57.8 65.2002 57.9 65.3002 58.1 65.4002C58.2 65.5002 58.3 65.6002 58.4 65.7002C58.5 65.8002 58.5 66.0002 58.5 66.2002V73.0002C58.6 73.2002 58.5 73.3002 58.4 73.5002ZM81.2 69.7002H78C78 69.7002 78 69.7002 78 69.8002V69.9002H78.1C78.2 69.9002 78.2 69.9002 78.4 70.0002C78.5 70.0002 78.6 70.1002 78.8 70.2002C78.9 70.3002 79 70.4002 79.1 70.5002C79.2 70.6002 79.2 70.8002 79.2 71.0002V71.5002C79.2 71.8002 79.2 72.1002 79.2 72.4002C79.2 72.7002 79.1 73.0002 79 73.2002C78.9 73.4002 78.8 73.6002 78.5 73.8002C78.3 74.0002 78 74.0002 77.6 74.0002C77.2 74.0002 76.9 73.9002 76.6 73.6002C76.3 73.4002 76.1 73.0002 75.9 72.6002C75.7 72.2002 75.6 71.7002 75.5 71.2002C75.4 70.7002 75.4 70.1002 75.4 69.5002C75.4 68.9002 75.4 68.3002 75.5 67.8002C75.6 67.3002 75.7 66.8002 75.9 66.4002C76.1 66.0002 76.4 65.7002 76.7 65.4002C77 65.2002 77.4 65.0002 77.8 65.0002C78.2 65.0002 78.5 65.1002 78.8 65.2002C79.1 65.3002 79.3 65.5002 79.5 65.6002C79.7 65.8002 79.9 66.0002 80 66.2002C80.1 66.4002 80.2 66.6002 80.3 66.8002C80.3 66.8002 80.3 66.8002 80.4 66.9002C80.4 66.9002 80.4 66.9002 80.5 66.9002C80.5 66.9002 80.5 66.9002 80.6 66.9002C80.6 66.9002 80.6 66.9002 80.6 66.8002V65.3002C80.6 65.2002 80.6 65.2002 80.5 65.2002C80.5 65.2002 80.4 65.1002 80.3 65.1002C80.2 65.0002 80 65.0002 79.8 64.9002C79.6 64.8002 79.3 64.8002 79 64.7002C78.7 64.6002 78.3 64.6002 77.9 64.6002C77.4 64.6002 77 64.7002 76.5 64.8002C76.1 64.9002 75.7 65.1002 75.3 65.3002C74.9 65.5002 74.6 65.8002 74.3 66.1002C74 66.4002 73.7 66.7002 73.5 67.1002C73.3 67.5002 73.1 67.9002 73 68.3002C72.9 68.7002 72.8 69.2002 72.8 69.6002C72.8 70.3002 72.9 70.9002 73.2 71.5002C73.4 72.1002 73.8 72.6002 74.2 73.0002C74.6 73.4002 75.1 73.8002 75.7 74.0002C76.3 74.3002 76.9 74.4002 77.6 74.4002C78 74.4002 78.3 74.4002 78.6 74.3002C78.9 74.3002 79.2 74.2002 79.5 74.1002C79.8 74.0002 80.1 73.9002 80.4 73.9002C80.7 73.8002 81 73.7002 81.4 73.6002C81.5 73.6002 81.5 73.6002 81.5 73.5002C81.5 73.5002 81.5 73.4002 81.5 73.3002V69.8002C81.5 69.7002 81.5 69.7002 81.4 69.6002C81.3 69.7002 81.3 69.7002 81.2 69.7002ZM88.1 65.6002C88.2 65.5002 88.3 65.4002 88.4 65.3002C88.5 65.2002 88.6 65.2002 88.8 65.1002C88.9 65.1002 89 65.0002 89.1 65.0002H89.2V64.9002C89.2 64.9002 89.2 64.9002 89.2 64.8002H84.6C84.6 64.8002 84.6 64.8002 84.6 64.9002V65.0002H84.7C84.8 65.0002 84.8 65.0002 85 65.1002C85.1 65.1002 85.2 65.2002 85.4 65.3002C85.5 65.4002 85.6 65.5002 85.7 65.6002C85.8 65.7002 85.8 65.9002 85.8 66.1002V73.0002C85.8 73.2002 85.8 73.4002 85.7 73.5002C85.6 73.6002 85.5 73.7002 85.4 73.8002C85.3 73.9002 85.2 73.9002 85 74.0002C84.9 74.0002 84.8 74.0002 84.7 74.1002H84.6C84.6 74.1002 84.6 74.1002 84.6 74.2002C84.6 74.2002 84.6 74.2002 84.6 74.3002H89.2C89.2 74.3002 89.2 74.3002 89.2 74.2002C89.2 74.2002 89.2 74.2002 89.2 74.1002H89.1C89 74.0002 89 74.0002 88.8 74.0002C88.7 74.0002 88.6 73.9002 88.4 73.8002C88.3 73.7002 88.2 73.6002 88.1 73.5002C88.1 73.3002 88 73.2002 88 73.0002V66.2002C88 65.9002 88.1 65.8002 88.1 65.6002ZM100.3 64.9002H97.6C97.6 64.9002 97.6 64.9002 97.6 65.0002V65.1002C97.6 65.1002 97.6 65.1002 97.7 65.2002C97.8 65.2002 97.9 65.2002 98 65.3002C98.1 65.3002 98.2 65.4002 98.3 65.4002C98.4 65.4002 98.5 65.5002 98.5 65.7002C98.6 65.8002 98.6 65.9002 98.5 66.1002C98.4 66.3002 98.4 66.5002 98.3 66.8002C98.2 67.1002 98.1 67.3002 98 67.7002C97.9 68.0002 97.8 68.3002 97.7 68.6002C97.6 68.9002 97.5 69.2002 97.4 69.5002C97.3 69.8002 97.2 70.1002 97.1 70.3002C97 70.5002 96.9 70.7002 96.9 70.8002C96.9 70.8002 96.9 70.9002 96.8 70.9002C96.8 70.9002 96.7 70.9002 96.7 70.8002C96.7 70.7002 96.6 70.5002 96.5 70.3002C96.4 70.1002 96.3 69.8002 96.2 69.6002C96.1 69.3002 96 69.0002 95.9 68.7002C95.8 68.4002 95.7 68.1002 95.6 67.8002C95.5 67.5002 95.4 67.2002 95.3 67.0002C95.2 66.7002 95.1 66.5002 95.1 66.4002C95.1 66.2002 95 66.1002 95.1 66.0002C95.1 65.9002 95.1 65.8002 95.2 65.7002C95.2 65.6002 95.3 65.5002 95.4 65.5002C95.5 65.4002 95.5 65.4002 95.6 65.4002C95.7 65.4002 95.7 65.3002 95.8 65.3002C95.9 65.3002 95.9 65.3002 95.9 65.3002C95.9 65.3002 96 65.3002 96 65.2002C96 65.2002 96 65.2002 96 65.1002C96 65.1002 96 65.1002 96 65.0002C96 65.0002 96 65.0002 95.9 65.0002H91.4C91.4 65.0002 91.4 65.0002 91.4 65.1002V65.2002C91.4 65.2002 91.4 65.2002 91.5 65.2002C91.8 65.3002 92 65.4002 92.2 65.6002C92.4 65.8002 92.6 66.1002 92.8 66.5002C92.9 66.7002 93 66.9002 93.1 67.2002C93.2 67.5002 93.3 67.8002 93.5 68.1002C93.6 68.5002 93.8 68.8002 93.9 69.2002C94 69.6002 94.2 70.0002 94.3 70.4002C94.5 70.8002 94.6 71.2002 94.7 71.6002C94.8 72.0002 95 72.4002 95.1 72.8002C95.2 73.2002 95.3 73.5002 95.4 73.8002C95.5 74.1002 95.6 74.3002 95.6 74.5002C95.6 74.6002 95.7 74.6002 95.7 74.6002C95.7 74.6002 95.8 74.6002 95.8 74.5002C95.9 74.3002 96 74.1002 96.1 73.8002C96.2 73.5002 96.3 73.1002 96.5 72.8002C96.6 72.4002 96.8 72.0002 97 71.6002C97.2 71.2002 97.3 70.7002 97.5 70.3002C97.7 69.9002 97.8 69.4002 98 69.0002C98.2 68.6002 98.3 68.2002 98.4 67.8002C98.5 67.4002 98.7 67.1002 98.8 66.8002C98.9 66.5002 99 66.3002 99.1 66.2002C99.2 65.9002 99.4 65.7002 99.6 65.6002C99.8 65.5002 100 65.4002 100.3 65.3002H100.4C100.4 65.3002 100.4 65.3002 100.4 65.2002C100.4 64.9002 100.4 64.9002 100.3 64.9002ZM106.1 65.6002C106.2 65.5002 106.3 65.4002 106.4 65.3002C106.5 65.2002 106.6 65.2002 106.8 65.1002C106.9 65.1002 107 65.0002 107.1 65.0002H107.2V64.9002C107.2 64.9002 107.2 64.9002 107.2 64.8002H102.6C102.6 64.8002 102.6 64.8002 102.6 64.9002V65.0002H102.7C102.8 65.0002 102.8 65.0002 103 65.1002C103.1 65.1002 103.2 65.2002 103.4 65.3002C103.5 65.4002 103.6 65.5002 103.7 65.6002C103.8 65.7002 103.8 65.9002 103.8 66.1002V73.0002C103.8 73.2002 103.8 73.4002 103.7 73.5002C103.6 73.6002 103.5 73.7002 103.4 73.8002C103.3 73.9002 103.2 73.9002 103 74.0002C102.9 74.0002 102.8 74.0002 102.7 74.1002H102.6C102.6 74.1002 102.6 74.1002 102.6 74.2002C102.6 74.2002 102.6 74.2002 102.6 74.3002H107.2C107.2 74.3002 107.2 74.3002 107.2 74.2002C107.2 74.2002 107.2 74.2002 107.2 74.1002H107.1C107 74.1002 107 74.1002 106.8 74.0002C106.7 74.0002 106.6 73.9002 106.4 73.8002C106.3 73.7002 106.2 73.6002 106.1 73.5002C106 73.4002 106 73.2002 106 73.0002V66.2002C106 65.9002 106 65.8002 106.1 65.6002ZM119.3 64.9002H116.6C116.6 64.9002 116.6 64.9002 116.6 65.0002V65.1002H116.7C116.8 65.1002 116.8 65.1002 117 65.2002C117.1 65.2002 117.2 65.3002 117.4 65.4002C117.5 65.5002 117.6 65.6002 117.7 65.7002C117.8 65.8002 117.8 66.0002 117.8 66.2002V70.5002H117.7C117.7 70.5002 117.6 70.4002 117.5 70.3002C117.4 70.2002 117.2 70.0002 117.1 69.8002C116.9 69.6002 116.7 69.3002 116.5 69.0002C116.3 68.7002 116 68.4002 115.8 68.1002C115.5 67.8002 115.3 67.5002 115 67.2002C114.7 66.9002 114.5 66.6002 114.3 66.3002C114.1 66.0002 113.9 65.8002 113.7 65.6002C113.5 65.4002 113.4 65.2002 113.3 65.1002C113.2 65.0002 113.1 65.0002 113 65.0002H109.9C109.9 65.0002 109.9 65.0002 109.9 65.1002V65.2002H110C110.1 65.2002 110.1 65.2002 110.3 65.3002C110.4 65.3002 110.5 65.4002 110.7 65.5002C110.8 65.6002 110.9 65.7002 111 65.8002C111.1 65.9002 111.1 66.1002 111.1 66.3002V73.0002C111.1 73.2002 111.1 73.4002 111 73.5002C110.9 73.6002 110.8 73.7002 110.7 73.8002C110.6 73.9002 110.5 73.9002 110.3 74.0002C110.2 74.0002 110.1 74.0002 110 74.1002H109.9C109.9 74.1002 109.9 74.1002 109.9 74.2002C109.9 74.2002 109.9 74.2002 109.9 74.3002H112.7C112.7 74.3002 112.7 74.3002 112.7 74.2002C112.7 74.2002 112.7 74.2002 112.7 74.1002H112.6C112.5 74.1002 112.5 74.1002 112.3 74.0002C112.2 74.0002 112.1 73.9002 111.9 73.8002C111.8 73.7002 111.7 73.6002 111.6 73.5002C111.5 73.4002 111.5 73.2002 111.5 73.0002V66.8002H111.6C111.6 66.8002 111.7 66.9002 111.8 67.0002C111.9 67.1002 112.1 67.3002 112.3 67.6002C112.5 67.8002 112.7 68.1002 113 68.4002C113.3 68.7002 113.5 69.0002 113.8 69.4002C114.1 69.8002 114.4 70.1002 114.7 70.5002C115 70.9002 115.3 71.2002 115.6 71.6002C115.9 72.0002 116.2 72.3002 116.4 72.6002C116.7 72.9002 116.9 73.2002 117.1 73.4002C117.3 73.6002 117.5 73.8002 117.6 74.0002C117.7 74.1002 117.8 74.2002 117.8 74.2002C117.9 74.3002 117.9 74.3002 118 74.3002C118.1 74.3002 118.1 74.2002 118.1 74.2002V66.2002C118.1 66.0002 118.1 65.8002 118.2 65.7002C118.3 65.6002 118.4 65.5002 118.5 65.4002C118.6 65.3002 118.7 65.3002 118.9 65.2002C119 65.2002 119.1 65.1002 119.2 65.1002H119.3V65.0002C119.3 65.0002 119.3 65.0002 119.3 64.9002ZM130.9 69.7002C130.9 69.7002 130.8 69.6002 130.7 69.6002H127.5C127.5 69.6002 127.5 69.6002 127.5 69.7002V69.8002H127.6C127.7 69.8002 127.7 69.8002 127.9 69.9002C128 69.9002 128.1 70.0002 128.3 70.1002C128.4 70.2002 128.5 70.3002 128.6 70.4002C128.7 70.5002 128.7 70.7002 128.7 70.9002V71.4002C128.7 71.7002 128.7 72.0002 128.7 72.3002C128.7 72.6002 128.6 72.9002 128.5 73.1002C128.4 73.3002 128.3 73.5002 128 73.7002C127.8 73.9002 127.5 73.9002 127.2 73.9002C126.8 73.9002 126.5 73.8002 126.2 73.5002C125.9 73.3002 125.7 72.9002 125.5 72.5002C125.3 72.1002 125.2 71.6002 125.1 71.1002C125 70.6002 125 70.0002 125 69.4002C125 68.8002 125 68.2002 125.1 67.7002C125.2 67.2002 125.3 66.7002 125.5 66.3002C125.7 65.9002 126 65.6002 126.3 65.3002C126.6 65.1002 127 64.9002 127.4 64.9002C127.8 64.9002 128.1 65.0002 128.4 65.1002C128.7 65.2002 128.9 65.4002 129.1 65.5002C129.3 65.7002 129.5 65.9002 129.6 66.1002C129.7 66.3002 129.8 66.5002 129.9 66.7002C129.9 66.7002 129.9 66.7002 130 66.8002C130 66.8002 130 66.8002 130.1 66.8002C130.1 66.8002 130.1 66.8002 130.2 66.8002C130.2 66.8002 130.2 66.8002 130.2 66.7002V65.2002C130.2 65.1002 130.2 65.1002 130.1 65.1002C130.1 65.1002 130 65.0002 129.9 65.0002C129.8 64.9002 129.6 64.9002 129.4 64.8002C129.2 64.7002 128.9 64.7002 128.6 64.6002C128.3 64.5002 127.9 64.5002 127.5 64.5002C127 64.5002 126.6 64.6002 126.1 64.7002C125.7 64.8002 125.3 65.0002 124.9 65.2002C124.5 65.4002 124.2 65.7002 123.9 66.0002C123.6 66.3002 123.3 66.6002 123.1 67.0002C122.9 67.4002 122.7 67.8002 122.6 68.2002C122.5 68.6002 122.4 69.1002 122.4 69.5002C122.4 70.2002 122.5 70.8002 122.8 71.4002C123 72.0002 123.4 72.5002 123.8 72.9002C124.2 73.3002 124.7 73.7002 125.3 73.9002C125.9 74.2002 126.5 74.3002 127.2 74.3002C127.6 74.3002 127.9 74.3002 128.2 74.2002C128.5 74.2002 128.8 74.1002 129.1 74.0002C129.4 73.9002 129.7 73.8002 130 73.8002C130.3 73.7002 130.6 73.6002 131 73.5002C131.1 73.5002 131.1 73.5002 131.1 73.4002C131.1 73.4002 131.1 73.3002 131.1 73.2002V69.7002C131 69.8002 131 69.8002 130.9 69.7002Z" fill="white"></path></svg>